ffmpeg started on 2025-06-27 at 10:08:30
Report written to "D:\Convert\FFMetrics\reports\ssim_report-6.txt"
Log level: 32
Command line:
ffmpeg -hide_banner -nostdin -i "G:\\\xc0\xed\xe8\xec\xe5\\[\xd2\xee\xef-4]\\\xd2\xee\xea\xe8\xe9\xf1\xea\xe8\xe9 \xc3\xf3\xeb\xfc\\\xd2\xc2-4\\Tokyo_Ghoul_Re_[04]_[AniLibria_TV]_[HDTVRip_720p]_HEVC.mkv" -i "G:\\\xc0\xed\xe8\xec\xe5\\[\xd2\xee\xef-4]\\\xd2\xee\xea\xe8\xe9\xf1\xea\xe8\xe9 \xc3\xf3\xeb\xfc\\\xd2\xc2-4\\Tokyo_Ghoul_Re_[04]_[AniLibria_TV]_[HDTVRip_720p].mkv" -lavfi "[0:v]settb=AVTB,setpts=PTS-STARTPTS,format=pix_fmts=yuv420p10,fps=24000/1001,scale=1280:720:flags=bicubic[main];[1:v]settb=AVTB,setpts=PTS-STARTPTS,format=pix_fmts=yuv420p,fps=24000/1001,scale=1280:720:flags=bicubic[ref];[main][ref]ssim=eof_action=endall:stats_file='D\\:/Convert/FFMetrics/logs/ssim_logfile-6.txt'" -f null -
Input #0, matroska,webm, from 'G:\Аниме\[Топ-4]\Токийский Гуль\ТВ-4\Tokyo_Ghoul_Re_[04]_[AniLibria_TV]_[HDTVRip_720p]_HEVC.mkv':
  Metadata:
    ENCODER         : Lavf61.7.100
  Duration: 00:24:30.05, start: -0.021000, bitrate: 774 kb/s
  Stream #0:0(jpn): Video: hevc (Main 10), yuv420p10le(tv, bt709, progressive), 1280x720 [SAR 1:1 DAR 16:9], 23.98 fps, 23.98 tbr, 1k tbn (default)
      Metadata:
        ENCODER         : Lavc61.19.100 libx265
        BPS             : 433943
        DURATION        : 00:24:30.051708333
        NUMBER_OF_FRAMES: 35246
        NUMBER_OF_BYTES : 79739842
        _STATISTICS_WRITING_APP: mkvpropedit v66.0.0 ('Josie') 64-bit
        _STATISTICS_WRITING_DATE_UTC: 2025-06-26 13:37:57
        _STATISTICS_TAGS: BPS DURATION NUMBER_OF_FRAMES NUMBER_OF_BYTES
  Stream #0:1(rus): Audio: aac (LC), 48000 Hz, stereo, fltp (default) (forced)
      Metadata:
        title           : Lupin, Silv & December
        ENCODER         : Lavc61.19.100 aac
        BPS             : 194765
        DURATION        : 00:24:30.016000000
        NUMBER_OF_FRAMES: 68908
        NUMBER_OF_BYTES : 35788496
        _STATISTICS_WRITING_APP: mkvpropedit v66.0.0 ('Josie') 64-bit
        _STATISTICS_WRITING_DATE_UTC: 2025-06-26 13:37:57
        _STATISTICS_TAGS: BPS DURATION NUMBER_OF_FRAMES NUMBER_OF_BYTES
  Stream #0:2(rus): Subtitle: ass (ssa) (default) (forced)
      Metadata:
        title           : Надписи
        BPS             : 64986
        DURATION        : 00:23:27.460000000
        NUMBER_OF_FRAMES: 38631
        NUMBER_OF_BYTES : 11433190
        _STATISTICS_WRITING_APP: mkvpropedit v66.0.0 ('Josie') 64-bit
        _STATISTICS_WRITING_DATE_UTC: 2025-06-26 13:37:57
        _STATISTICS_TAGS: BPS DURATION NUMBER_OF_FRAMES NUMBER_OF_BYTES
  Stream #0:3(rus): Subtitle: ass (ssa)
      Metadata:
        title           : Субтитры
        BPS             : 65088
        DURATION        : 00:23:27.460000000
        NUMBER_OF_FRAMES: 38886
        NUMBER_OF_BYTES : 11451235
        _STATISTICS_WRITING_APP: mkvpropedit v66.0.0 ('Josie') 64-bit
        _STATISTICS_WRITING_DATE_UTC: 2025-06-26 13:37:57
        _STATISTICS_TAGS: BPS DURATION NUMBER_OF_FRAMES NUMBER_OF_BYTES
Input #1, matroska,webm, from 'G:\Аниме\[Топ-4]\Токийский Гуль\ТВ-4\Tokyo_Ghoul_Re_[04]_[AniLibria_TV]_[HDTVRip_720p].mkv':
  Metadata:
    encoder         : libebml v1.4.2 + libmatroska v1.6.4
    creation_time   : 2024-12-27T09:44:48.000000Z
  Duration: 00:24:30.05, start: 0.000000, bitrate: 2053 kb/s
  Stream #1:0(jpn): Video: h264 (Main), yuv420p(tv, bt709, progressive), 1280x720, SAR 1:1 DAR 16:9, 23.98 fps, 23.98 tbr, 1k tbn (default)
      Metadata:
        BPS             : 1705676
        DURATION        : 00:24:30.052000000
        NUMBER_OF_FRAMES: 35246
        NUMBER_OF_BYTES : 313429235
        _STATISTICS_WRITING_APP: mkvmerge v66.0.0 ('Josie') 64-bit
        _STATISTICS_WRITING_DATE_UTC: 2024-12-27 09:44:48
        _STATISTICS_TAGS: BPS DURATION NUMBER_OF_FRAMES NUMBER_OF_BYTES
  Stream #1:1(rus): Audio: aac (LC), 48000 Hz, stereo, fltp (default) (forced)
      Metadata:
        title           : Lupin, Silv & December
        BPS             : 192093
        DURATION        : 00:24:30.016000000
        NUMBER_OF_FRAMES: 68907
        NUMBER_OF_BYTES : 35297522
        _STATISTICS_WRITING_APP: mkvmerge v66.0.0 ('Josie') 64-bit
        _STATISTICS_WRITING_DATE_UTC: 2024-12-27 09:44:48
        _STATISTICS_TAGS: BPS DURATION NUMBER_OF_FRAMES NUMBER_OF_BYTES
  Stream #1:2(rus): Subtitle: ass (ssa) (default) (forced)
      Metadata:
        title           : Надписи
        BPS             : 64986
        DURATION        : 00:23:27.460000000
        NUMBER_OF_FRAMES: 38631
        NUMBER_OF_BYTES : 11433190
        _STATISTICS_WRITING_APP: mkvmerge v66.0.0 ('Josie') 64-bit
        _STATISTICS_WRITING_DATE_UTC: 2024-12-27 09:44:48
        _STATISTICS_TAGS: BPS DURATION NUMBER_OF_FRAMES NUMBER_OF_BYTES
  Stream #1:3(rus): Subtitle: ass (ssa)
      Metadata:
        title           : Субтитры
        BPS             : 65088
        DURATION        : 00:23:27.460000000
        NUMBER_OF_FRAMES: 38886
        NUMBER_OF_BYTES : 11451235
        _STATISTICS_WRITING_APP: mkvmerge v66.0.0 ('Josie') 64-bit
        _STATISTICS_WRITING_DATE_UTC: 2024-12-27 09:44:48
        _STATISTICS_TAGS: BPS DURATION NUMBER_OF_FRAMES NUMBER_OF_BYTES
  Stream #1:4: Attachment: ttf
      Metadata:
        filename        : BenchNine-Regular.ttf
        mimetype        : application/x-truetype-font
  Stream #1:5: Attachment: ttf
      Metadata:
        filename        : OpenSanA.ttf
        mimetype        : application/x-truetype-font
  Stream #1:6: Attachment: ttf
      Metadata:
        filename        : REDOCTOB.otf
        mimetype        : application/x-truetype-font
  Stream #1:7: Attachment: ttf
      Metadata:
        filename        : simsun_0.ttc
        mimetype        : application/x-truetype-font
  Stream #1:8: Attachment: ttf
      Metadata:
        filename        : Snowstorm.ttf
        mimetype        : application/x-truetype-font
  Stream #1:9: Attachment: ttf
      Metadata:
        filename        : TEMPSITC.TTF
        mimetype        : application/x-truetype-font
  Stream #1:10: Attachment: otf
      Metadata:
        filename        : TrajanPro3-Bold.otf
        mimetype        : application/vnd.ms-opentype
  Stream #1:11: Attachment: otf
      Metadata:
        filename        : TrajanPro3-Regular.otf
        mimetype        : application/vnd.ms-opentype
  Stream #1:12: Attachment: ttf
      Metadata:
        filename        : v_HolyMackerelli_v1.9.ttf
        mimetype        : application/x-truetype-font
  Stream #1:13: Attachment: ttf
      Metadata:
        filename        : XENI.TTF
        mimetype        : application/x-truetype-font
  Stream #1:14: Attachment: ttf
      Metadata:
        filename        : Aero Matics Display Bold Italic.ttf
        mimetype        : application/x-truetype-font
  Stream #1:15: Attachment: ttf
      Metadata:
        filename        : Aero Matics Display Bold.ttf
        mimetype        : application/x-truetype-font
  Stream #1:16: Attachment: ttf
      Metadata:
        filename        : Aero Matics Display Italic.ttf
        mimetype        : application/x-truetype-font
  Stream #1:17: Attachment: ttf
      Metadata:
        filename        : Aero Matics Display Light Italic.ttf
        mimetype        : application/x-truetype-font
  Stream #1:18: Attachment: ttf
      Metadata:
        filename        : Aero Matics Display Light.ttf
        mimetype        : application/x-truetype-font
  Stream #1:19: Attachment: ttf
      Metadata:
        filename        : Aero_Matics_Display_Regular.ttf
        mimetype        : application/x-truetype-font
Stream mapping:
  Stream #0:0 (hevc) -> settb:default
  Stream #1:0 (h264) -> settb:default
  ssim:default -> Stream #0:0 (wrapped_avframe)
  Stream #0:1 -> #0:1 (aac (native) -> pcm_s16le (native))
Output #0, null, to 'pipe:':
  Metadata:
    encoder         : Lavf61.7.100
  Stream #0:0: Video: wrapped_avframe, yuv420p10le(tv, bt709, progressive), 1280x720 [SAR 1:1 DAR 16:9], q=2-31, 200 kb/s, 23.98 fps, 23.98 tbn
      Metadata:
        encoder         : Lavc61.19.100 wrapped_avframe
  Stream #0:1(rus): Audio: pcm_s16le, 48000 Hz, stereo, s16, 1536 kb/s (default) (forced)
      Metadata:
        title           : Lupin, Silv & December
        _STATISTICS_TAGS: BPS DURATION NUMBER_OF_FRAMES NUMBER_OF_BYTES
        BPS             : 194765
        DURATION        : 00:24:30.016000000
        NUMBER_OF_FRAMES: 68908
        NUMBER_OF_BYTES : 35788496
        _STATISTICS_WRITING_APP: mkvpropedit v66.0.0 ('Josie') 64-bit
        _STATISTICS_WRITING_DATE_UTC: 2025-06-26 13:37:57
        encoder         : Lavc61.19.100 pcm_s16le
frame=  536 fps=0.0 q=-0.0 size=N/A time=00:00:22.35 bitrate=N/A speed=42.7x    frame= 1065 fps=1022 q=-0.0 size=N/A time=00:00:44.41 bitrate=N/A speed=42.6x    frame= 1478 fps=951 q=-0.0 size=N/A time=00:01:01.64 bitrate=N/A speed=39.7x    frame= 1802 fps=870 q=-0.0 size=N/A time=00:01:15.15 bitrate=N/A speed=36.3x    frame= 2169 fps=839 q=-0.0 size=N/A time=00:01:30.46 bitrate=N/A speed=  35x    frame= 2461 fps=795 q=-0.0 size=N/A time=00:01:42.64 bitrate=N/A speed=33.2x    frame= 2804 fps=777 q=-0.0 size=N/A time=00:01:56.95 bitrate=N/A speed=32.4x    frame= 3127 fps=759 q=-0.0 size=N/A time=00:02:10.42 bitrate=N/A speed=31.6x    frame= 3560 fps=765 q=-0.0 size=N/A time=00:02:28.48 bitrate=N/A speed=31.9x    frame= 4143 fps=801 q=-0.0 size=N/A time=00:02:52.79 bitrate=N/A speed=33.4x    frame= 4572 fps=804 q=-0.0 size=N/A time=00:03:10.69 bitrate=N/A speed=33.5x    frame= 5121 fps=826 q=-0.0 size=N/A time=00:03:33.58 bitrate=N/A speed=34.4x    frame= 5684 fps=844 q=-0.0 size=N/A time=00:03:57.07 bitrate=N/A speed=35.2x    frame= 6211 fps=856 q=-0.0 size=N/A time=00:04:19.05 bitrate=N/A speed=35.7x    frame= 6739 fps=867 q=-0.0 size=N/A time=00:04:41.07 bitrate=N/A speed=36.2x    frame= 7275 fps=878 q=-0.0 size=N/A time=00:05:03.42 bitrate=N/A speed=36.6x    frame= 7807 fps=887 q=-0.0 size=N/A time=00:05:25.61 bitrate=N/A speed=  37x    frame= 8369 fps=898 q=-0.0 size=N/A time=00:05:49.05 bitrate=N/A speed=37.5x    frame= 8914 fps=906 q=-0.0 size=N/A time=00:06:11.78 bitrate=N/A speed=37.8x    frame= 9466 fps=915 q=-0.0 size=N/A time=00:06:34.81 bitrate=N/A speed=38.2x    frame=10020 fps=922 q=-0.0 size=N/A time=00:06:57.91 bitrate=N/A speed=38.5x    frame=10592 fps=931 q=-0.0 size=N/A time=00:07:21.77 bitrate=N/A speed=38.8x    frame=11103 fps=933 q=-0.0 size=N/A time=00:07:43.08 bitrate=N/A speed=38.9x    frame=11621 fps=936 q=-0.0 size=N/A time=00:08:04.69 bitrate=N/A speed=  39x    frame=12174 fps=942 q=-0.0 size=N/A time=00:08:27.75 bitrate=N/A speed=39.3x    frame=12717 fps=947 q=-0.0 size=N/A time=00:08:50.40 bitrate=N/A speed=39.5x    frame=13165 fps=944 q=-0.0 size=N/A time=00:09:09.09 bitrate=N/A speed=39.4x    frame=13739 fps=949 q=-0.0 size=N/A time=00:09:33.03 bitrate=N/A speed=39.6x    frame=14224 fps=949 q=-0.0 size=N/A time=00:09:53.25 bitrate=N/A speed=39.6x    frame=14631 fps=943 q=-0.0 size=N/A time=00:10:10.23 bitrate=N/A speed=39.3x    frame=15106 fps=943 q=-0.0 size=N/A time=00:10:30.04 bitrate=N/A speed=39.3x    frame=15574 fps=942 q=-0.0 size=N/A time=00:10:49.56 bitrate=N/A speed=39.3x    frame=16122 fps=946 q=-0.0 size=N/A time=00:11:12.42 bitrate=N/A speed=39.4x    frame=16646 fps=948 q=-0.0 size=N/A time=00:11:34.27 bitrate=N/A speed=39.5x    frame=17149 fps=949 q=-0.0 size=N/A time=00:11:55.25 bitrate=N/A speed=39.6x    frame=17721 fps=953 q=-0.0 size=N/A time=00:12:19.11 bitrate=N/A speed=39.7x    frame=18268 fps=956 q=-0.0 size=N/A time=00:12:41.92 bitrate=N/A speed=39.9x    frame=18736 fps=955 q=-0.0 size=N/A time=00:13:01.44 bitrate=N/A speed=39.8x    frame=19218 fps=954 q=-0.0 size=N/A time=00:13:21.55 bitrate=N/A speed=39.8x    frame=19644 fps=951 q=-0.0 size=N/A time=00:13:39.31 bitrate=N/A speed=39.7x    frame=20149 fps=951 q=-0.0 size=N/A time=00:14:00.38 bitrate=N/A speed=39.7x    frame=20608 fps=950 q=-0.0 size=N/A time=00:14:19.52 bitrate=N/A speed=39.6x    frame=21081 fps=949 q=-0.0 size=N/A time=00:14:39.25 bitrate=N/A speed=39.6x    frame=21582 fps=950 q=-0.0 size=N/A time=00:15:00.14 bitrate=N/A speed=39.6x    frame=21953 fps=944 q=-0.0 size=N/A time=00:15:15.62 bitrate=N/A speed=39.4x    frame=22460 fps=946 q=-0.0 size=N/A time=00:15:36.76 bitrate=N/A speed=39.4x    frame=23060 fps=950 q=-0.0 size=N/A time=00:16:01.79 bitrate=N/A speed=39.6x    frame=23549 fps=949 q=-0.0 size=N/A time=00:16:22.18 bitrate=N/A speed=39.6x    frame=23942 fps=945 q=-0.0 size=N/A time=00:16:38.58 bitrate=N/A speed=39.4x    frame=24377 fps=943 q=-0.0 size=N/A time=00:16:56.72 bitrate=N/A speed=39.4x    frame=24746 fps=939 q=-0.0 size=N/A time=00:17:12.11 bitrate=N/A speed=39.2x    frame=25201 fps=938 q=-0.0 size=N/A time=00:17:31.09 bitrate=N/A speed=39.1x    frame=25593 fps=934 q=-0.0 size=N/A time=00:17:47.44 bitrate=N/A speed=  39x    frame=26102 fps=936 q=-0.0 size=N/A time=00:18:08.67 bitrate=N/A speed=  39x    frame=26679 fps=939 q=-0.0 size=N/A time=00:18:32.73 bitrate=N/A speed=39.2x    frame=27253 fps=942 q=-0.0 size=N/A time=00:18:56.67 bitrate=N/A speed=39.3x    frame=27663 fps=940 q=-0.0 size=N/A time=00:19:13.77 bitrate=N/A speed=39.2x    frame=28166 fps=940 q=-0.0 size=N/A time=00:19:34.75 bitrate=N/A speed=39.2x    frame=28665 fps=941 q=-0.0 size=N/A time=00:19:55.56 bitrate=N/A speed=39.2x    frame=29209 fps=943 q=-0.0 size=N/A time=00:20:18.25 bitrate=N/A speed=39.3x    frame=29721 fps=943 q=-0.0 size=N/A time=00:20:39.61 bitrate=N/A speed=39.3x    frame=30181 fps=943 q=-0.0 size=N/A time=00:20:58.79 bitrate=N/A speed=39.3x    frame=30590 fps=940 q=-0.0 size=N/A time=00:21:15.85 bitrate=N/A speed=39.2x    frame=31158 fps=943 q=-0.0 size=N/A time=00:21:39.54 bitrate=N/A speed=39.3x    frame=31557 fps=940 q=-0.0 size=N/A time=00:21:56.18 bitrate=N/A speed=39.2x    frame=32100 fps=942 q=-0.0 size=N/A time=00:22:18.83 bitrate=N/A speed=39.3x    frame=32564 fps=941 q=-0.0 size=N/A time=00:22:38.19 bitrate=N/A speed=39.2x    frame=32881 fps=936 q=-0.0 size=N/A time=00:22:51.41 bitrate=N/A speed=39.1x    frame=33320 fps=935 q=-0.0 size=N/A time=00:23:09.72 bitrate=N/A speed=  39x    frame=33716 fps=933 q=-0.0 size=N/A time=00:23:26.23 bitrate=N/A speed=38.9x    frame=34125 fps=931 q=-0.0 size=N/A time=00:23:43.29 bitrate=N/A speed=38.8x    frame=34582 fps=930 q=-0.0 size=N/A time=00:24:02.35 bitrate=N/A speed=38.8x    frame=35121 fps=932 q=-0.0 size=N/A time=00:24:24.83 bitrate=N/A speed=38.9x    [Parsed_ssim_10 @ 00000230b5901dc0] SSIM Y:0.991299 (20.604191) U:0.993381 (21.792324) V:0.993650 (21.971968) All:0.992038 (20.989597)
[out#0/null @ 00000230b598cec0] video:15145KiB audio:275632KiB subtitle:0KiB other streams:0KiB global headers:0KiB muxing overhead: unknown
frame=35246 fps=932 q=-0.0 Lsize=N/A time=00:24:30.03 bitrate=N/A speed=38.9x    
